<svg width="595" height="202" viewBox="0 0 595 202" fill="none" xmlns="http://www.w3.org/2000/svg">
<path d="M595 202L0 202V0C0 0 67.9834 22.8679 135.095 22.8679C269.436 22.8679 344.565 0 474.141 0C521.625 0 595 19.3498 595 19.3498V202Z" fill="#1A1E29"/>
<path d="M220.08 49.9878L178.536 77.6566L179.464 79.0633L220.08 52.0121L260.321 78.813V87.0836H226.49V150.276H261.16V148.589H228.169V119.524H251.494V117.836H228.169V88.7711H261.999V77.9068L220.08 49.9878Z" fill="white"/>
<path fill-rule="evenodd" clip-rule="evenodd" d="M178.161 87.0836V159.844H261.16V158.156H179.839V120.797L207.388 150.013L208.607 148.852L180.2 118.726L215.01 87.0836H178.161ZM179.839 88.7711V116.779L210.651 88.7711H179.839Z" fill="white"/>
<path fill-rule="evenodd" clip-rule="evenodd" d="M284.882 83.3999V111.75H286.252V102.232H294.673C295.77 102.232 296.793 102.149 297.742 101.982L304.705 111.75H306.316L299.095 101.674C299.652 101.516 300.179 101.324 300.676 101.098C302.368 100.342 303.657 99.2624 304.544 97.8584C305.43 96.4544 305.873 94.7669 305.873 92.7959C305.873 90.8249 305.43 89.1509 304.544 87.7739C303.657 86.3699 302.368 85.2899 300.676 84.5339C299.01 83.7779 297.009 83.3999 294.673 83.3999H284.882ZM286.252 100.977H294.753C297.923 100.977 300.34 100.261 302.005 98.8304C303.698 97.3994 304.544 95.3879 304.544 92.7959C304.544 90.2039 303.698 88.2059 302.005 86.8019C300.34 85.3709 297.923 84.6554 294.753 84.6554H286.252V100.977Z" fill="white"/>
<path fill-rule="evenodd" clip-rule="evenodd" d="M315.856 110.535C317.441 111.426 319.267 111.871 321.335 111.871C322.866 111.871 324.303 111.588 325.646 111.021C327.016 110.427 328.171 109.563 329.111 108.429L328.265 107.538C327.46 108.591 326.439 109.374 325.203 109.887C323.995 110.4 322.705 110.656 321.335 110.656C319.536 110.656 317.938 110.265 316.541 109.482C315.144 108.672 314.043 107.565 313.237 106.161C312.455 104.772 312.053 103.193 312.03 101.422H330.36V101.058C330.36 99.0059 329.931 97.1969 329.071 95.6309C328.238 94.0379 327.07 92.7959 325.566 91.9049C324.089 91.0139 322.423 90.5684 320.57 90.5684C318.69 90.5684 316.998 91.0274 315.493 91.9454C314.016 92.8634 312.848 94.1189 311.988 95.7119C311.156 97.3049 310.739 99.1409 310.739 101.22C310.739 103.272 311.196 105.108 312.109 106.728C313.022 108.348 314.271 109.617 315.856 110.535ZM312.047 100.329C312.129 98.8259 312.486 97.4759 313.116 96.2789C313.868 94.8749 314.889 93.7814 316.178 92.9984C317.468 92.1884 318.931 91.7834 320.57 91.7834C322.208 91.7834 323.672 92.1884 324.962 92.9984C326.251 93.7814 327.258 94.8749 327.983 96.2789C328.642 97.4842 329.012 98.8342 329.094 100.329H312.047Z" fill="white"/>
<path fill-rule="evenodd" clip-rule="evenodd" d="M349.626 107.544V111.75H350.915V98.1419C350.915 95.6579 350.244 93.7814 348.901 92.5124C347.585 91.2164 345.678 90.5684 343.18 90.5684C341.595 90.5684 340.077 90.8519 338.627 91.4189C337.176 91.9589 335.954 92.7014 334.96 93.6464L335.686 94.6184C336.599 93.7814 337.687 93.1064 338.949 92.5934C340.212 92.0534 341.608 91.7834 343.139 91.7834C345.234 91.7834 346.833 92.3234 347.934 93.4034C349.035 94.4834 349.586 96.0629 349.586 98.1419V100.207H341.971C340.091 100.207 338.586 100.477 337.458 101.017C336.357 101.53 335.565 102.232 335.081 103.123C334.598 103.987 334.356 104.932 334.356 105.958C334.356 107.119 334.652 108.159 335.242 109.077C335.833 109.968 336.679 110.656 337.781 111.142C338.909 111.628 340.265 111.871 341.85 111.871C343.972 111.871 345.731 111.385 347.128 110.413C348.226 109.649 349.059 108.692 349.626 107.544ZM349.586 105.675C348.941 107.295 347.988 108.55 346.725 109.441C345.463 110.305 343.864 110.737 341.931 110.737C339.97 110.737 338.439 110.305 337.338 109.441C336.236 108.55 335.686 107.362 335.686 105.877C335.686 104.554 336.156 103.461 337.096 102.597C338.063 101.733 339.688 101.301 341.971 101.301H349.586V105.675Z" fill="white"/>
<path d="M359.623 81.6989V111.75H360.952V81.6989H359.623Z" fill="white"/>
<path d="M286.252 145.23V157.744H303.939V159H284.882V130.65H303.375V131.905H286.252V143.974H301.562V145.23H286.252Z" fill="white"/>
<path d="M310.957 158.352C312.461 158.865 314.073 159.121 315.792 159.121C317.565 159.121 319.028 158.892 320.183 158.433C321.365 157.974 322.252 157.326 322.843 156.489C323.46 155.625 323.769 154.653 323.769 153.573C323.769 152.412 323.514 151.494 323.004 150.819C322.493 150.144 321.822 149.617 320.989 149.239C320.157 148.861 319.23 148.564 318.209 148.348C317.215 148.132 316.208 147.93 315.187 147.741C314.194 147.552 313.28 147.309 312.448 147.012C311.615 146.715 310.944 146.283 310.433 145.716C309.923 145.122 309.668 144.339 309.668 143.367C309.668 142.152 310.165 141.126 311.158 140.289C312.152 139.452 313.737 139.033 315.913 139.033C317.095 139.033 318.236 139.195 319.337 139.519C320.465 139.843 321.446 140.343 322.279 141.018L322.963 139.965C322.184 139.317 321.137 138.804 319.821 138.426C318.532 138.021 317.242 137.818 315.953 137.818C314.207 137.818 312.77 138.088 311.642 138.628C310.514 139.141 309.668 139.816 309.104 140.653C308.566 141.49 308.298 142.408 308.298 143.407C308.298 144.568 308.553 145.5 309.063 146.202C309.574 146.904 310.245 147.457 311.078 147.862C311.911 148.24 312.837 148.551 313.858 148.794C314.879 149.01 315.886 149.212 316.88 149.401C317.9 149.563 318.827 149.793 319.66 150.09C320.492 150.387 321.164 150.805 321.674 151.345C322.184 151.885 322.44 152.628 322.44 153.573C322.44 154.869 321.916 155.922 320.868 156.732C319.848 157.542 318.169 157.947 315.832 157.947C314.194 157.947 312.703 157.677 311.36 157.137C310.017 156.597 308.956 155.976 308.177 155.274L307.532 156.327C308.311 157.137 309.453 157.812 310.957 158.352Z" fill="white"/>
<path d="M331.413 157.663C332.327 158.635 333.643 159.121 335.362 159.121C336.141 159.121 336.906 159 337.658 158.757C338.41 158.514 339.042 158.149 339.552 157.663L338.867 156.691C337.981 157.528 336.852 157.947 335.483 157.947C334.14 157.947 333.119 157.569 332.421 156.813C331.722 156.057 331.373 154.963 331.373 153.532V139.155H338.263V137.98H331.373V133.363H330.043V137.98H326.095V139.155H330.043V153.735C330.043 155.382 330.5 156.691 331.413 157.663Z" fill="white"/>
<path fill-rule="evenodd" clip-rule="evenodd" d="M358.754 154.794V159H360.043V145.392C360.043 142.908 359.372 141.031 358.029 139.762C356.713 138.466 354.806 137.818 352.308 137.818C350.723 137.818 349.205 138.102 347.755 138.669C346.305 139.209 345.082 139.951 344.089 140.896L344.814 141.868C345.727 141.031 346.815 140.356 348.077 139.843C349.34 139.303 350.736 139.033 352.267 139.033C354.363 139.033 355.961 139.573 357.062 140.653C358.163 141.733 358.714 143.313 358.714 145.392V147.457H351.099C349.219 147.457 347.715 147.727 346.587 148.267C345.485 148.78 344.693 149.482 344.209 150.373C343.726 151.237 343.484 152.182 343.484 153.208C343.484 154.369 343.78 155.409 344.371 156.327C344.962 157.218 345.808 157.906 346.909 158.392C348.037 158.878 349.393 159.121 350.978 159.121C353.1 159.121 354.859 158.635 356.256 157.663C357.355 156.899 358.187 155.942 358.754 154.794ZM358.714 152.925C358.069 154.545 357.116 155.8 355.853 156.691C354.591 157.555 352.993 157.987 351.059 157.987C349.098 157.987 347.567 157.555 346.466 156.691C345.364 155.8 344.814 154.612 344.814 153.127C344.814 151.804 345.284 150.711 346.224 149.847C347.191 148.983 348.816 148.551 351.099 148.551H358.714V152.925Z" fill="white"/>
<path d="M370.484 157.663C371.397 158.635 372.713 159.121 374.432 159.121C375.211 159.121 375.976 159 376.729 158.757C377.481 158.514 378.112 158.149 378.622 157.663L377.937 156.691C377.051 157.528 375.923 157.947 374.553 157.947C373.21 157.947 372.189 157.569 371.491 156.813C370.792 156.057 370.443 154.963 370.443 153.532V139.155H377.333V137.98H370.443V133.363H369.114V137.98H365.165V139.155H369.114V153.735C369.114 155.382 369.57 156.691 370.484 157.663Z" fill="white"/>
<path fill-rule="evenodd" clip-rule="evenodd" d="M386.482 157.785C388.066 158.676 389.893 159.121 391.961 159.121C393.492 159.121 394.929 158.838 396.272 158.271C397.642 157.677 398.797 156.813 399.737 155.679L398.891 154.788C398.085 155.841 397.064 156.624 395.829 157.137C394.62 157.65 393.331 157.906 391.961 157.906C390.161 157.906 388.563 157.515 387.166 156.732C385.77 155.922 384.669 154.815 383.863 153.411C383.081 152.022 382.678 150.443 382.655 148.672H400.986V148.308C400.986 146.256 400.556 144.447 399.697 142.881C398.864 141.288 397.696 140.046 396.191 139.155C394.714 138.264 393.049 137.818 391.195 137.818C389.315 137.818 387.623 138.277 386.119 139.195C384.642 140.113 383.473 141.369 382.614 142.962C381.781 144.555 381.365 146.391 381.365 148.47C381.365 150.522 381.821 152.358 382.735 153.978C383.648 155.598 384.897 156.867 386.482 157.785ZM382.673 147.579C382.755 146.076 383.111 144.726 383.742 143.529C384.494 142.125 385.515 141.031 386.804 140.248C388.093 139.438 389.557 139.033 391.195 139.033C392.834 139.033 394.298 139.438 395.587 140.248C396.876 141.031 397.884 142.125 398.609 143.529C399.267 144.734 399.637 146.084 399.719 147.579H382.673Z" fill="white"/>
</svg>
