<svg width="36" height="36" viewBox="0 0 36 36" fill="none" xmlns="http://www.w3.org/2000/svg">
<path d="M20.6569 24.7065V22.778C20.6821 22.4576 20.6388 22.1356 20.5299 21.8332C20.421 21.5308 20.249 21.2551 20.0253 21.0243C22.1351 20.7892 24.3525 19.9896 24.3525 16.3209C24.3523 15.3827 23.9914 14.4806 23.3446 13.8012C23.6509 12.9804 23.6292 12.0732 23.2841 11.268C23.2841 11.268 22.4913 11.0328 20.6569 12.2624C19.1169 11.8451 17.4935 11.8451 15.9534 12.2624C14.1191 11.0328 13.3262 11.268 13.3262 11.268C12.9811 12.0732 12.9594 12.9804 13.2657 13.8012C12.6141 14.4856 12.2528 15.3959 12.2579 16.341C12.2579 19.9828 14.4752 20.7824 16.585 21.0445C16.364 21.2729 16.1935 21.5453 16.0847 21.844C15.9759 22.1427 15.9311 22.4609 15.9534 22.778V24.7065" stroke="url(#paint0_linear_302_393)" stroke-linecap="round" stroke-linejoin="round"/>
<path d="M15.9535 23.3626C13.9377 24.0164 12.2579 23.3626 11.25 21.3469" stroke="url(#paint1_linear_302_393)" stroke-linecap="round" stroke-linejoin="round"/>
<path d="M32 12.6667V26V32H25.913L4 32V29.2M32 9.5V4L12.68 4L4 4L4 21.8333L4 26" stroke="url(#paint2_linear_302_393)" stroke-linecap="square"/>
<defs>
<linearGradient id="paint0_linear_302_393" x1="27.9809" y1="8.15501" x2="18.0896" y2="26.8557" gradientUnits="userSpaceOnUse">
<stop stop-color="#626060"/>
<stop offset="0.65" stop-color="#5197D8"/>
<stop offset="1" stop-color="#111F6B"/>
</linearGradient>
<linearGradient id="paint1_linear_302_393" x1="17.3645" y1="20.827" x2="16.4918" y2="24.6473" gradientUnits="userSpaceOnUse">
<stop stop-color="#626060"/>
<stop offset="0.65" stop-color="#5197D8"/>
<stop offset="1" stop-color="#111F6B"/>
</linearGradient>
<linearGradient id="paint2_linear_302_393" x1="40.4" y1="-2.44" x2="21.0901" y2="38.1784" gradientUnits="userSpaceOnUse">
<stop stop-color="#626060"/>
<stop offset="0.65" stop-color="#5197D8"/>
<stop offset="1" stop-color="#111F6B"/>
</linearGradient>
</defs>
</svg>
