<svg width="488" height="243" viewBox="0 0 488 243" fill="none" xmlns="http://www.w3.org/2000/svg">
<g filter="url(#filter0_d_33_1811)">
<g clip-path="url(#clip0_33_1811)">
<rect x="132" y="4" width="100" height="101" fill="#2A2B34"/>
<path d="M165.217 45.3088L169.585 35.5088H171.825L176.207 45.3088H173.827L170.243 36.6568H171.139L167.541 45.3088H165.217ZM167.401 43.2088L168.003 41.4868H173.043L173.659 43.2088H167.401ZM176.25 45.3088L180.618 35.5088H182.858L187.24 45.3088H184.86L181.276 36.6568H182.172L178.574 45.3088H176.25ZM178.434 43.2088L179.036 41.4868H184.076L184.692 43.2088H178.434ZM187.283 45.3088L191.651 35.5088H193.891L198.273 45.3088H195.893L192.309 36.6568H193.205L189.607 45.3088H187.283ZM189.467 43.2088L190.069 41.4868H195.109L195.725 43.2088H189.467ZM155.742 75.3088L156.946 65.5088H157.702L156.498 75.3088H155.742ZM150.436 72.6488V71.8788H158.906V72.6488H150.436ZM152.102 75.3088L153.306 65.5088H154.076L152.858 75.3088H152.102ZM150.884 68.9388V68.1688H159.354V68.9388H150.884ZM160.324 75.3088V74.5948L164.398 70.6048C164.772 70.2408 165.052 69.9235 165.238 69.6528C165.425 69.3728 165.551 69.1115 165.616 68.8688C165.682 68.6262 165.714 68.3975 165.714 68.1828C165.714 67.6135 165.518 67.1655 165.126 66.8388C164.744 66.5122 164.174 66.3488 163.418 66.3488C162.84 66.3488 162.326 66.4375 161.878 66.6148C161.44 66.7922 161.062 67.0675 160.744 67.4408L160.03 66.8248C160.413 66.3768 160.903 66.0315 161.5 65.7888C162.098 65.5462 162.765 65.4248 163.502 65.4248C164.165 65.4248 164.739 65.5322 165.224 65.7468C165.71 65.9522 166.083 66.2555 166.344 66.6568C166.615 67.0582 166.75 67.5295 166.75 68.0708C166.75 68.3882 166.704 68.7008 166.61 69.0088C166.526 69.3168 166.368 69.6435 166.134 69.9888C165.91 70.3248 165.579 70.7075 165.14 71.1368L161.402 74.8048L161.122 74.4128H167.198V75.3088H160.324ZM167.763 75.3088L172.243 65.5088H173.265L177.745 75.3088H176.653L172.537 66.1108H172.957L168.841 75.3088H167.763ZM169.527 72.6908L169.835 71.8508H175.533L175.841 72.6908H169.527ZM178.316 75.3088V74.5948L182.39 70.6048C182.764 70.2408 183.044 69.9235 183.23 69.6528C183.417 69.3728 183.543 69.1115 183.608 68.8688C183.674 68.6262 183.706 68.3975 183.706 68.1828C183.706 67.6135 183.51 67.1655 183.118 66.8388C182.736 66.5122 182.166 66.3488 181.41 66.3488C180.832 66.3488 180.318 66.4375 179.87 66.6148C179.432 66.7922 179.054 67.0675 178.736 67.4408L178.022 66.8248C178.405 66.3768 178.895 66.0315 179.492 65.7888C180.09 65.5462 180.757 65.4248 181.494 65.4248C182.157 65.4248 182.731 65.5322 183.216 65.7468C183.702 65.9522 184.075 66.2555 184.336 66.6568C184.607 67.0582 184.742 67.5295 184.742 68.0708C184.742 68.3882 184.696 68.7008 184.602 69.0088C184.518 69.3168 184.36 69.6435 184.126 69.9888C183.902 70.3248 183.571 70.7075 183.132 71.1368L179.394 74.8048L179.114 74.4128H185.19V75.3088H178.316ZM187.323 75.3088V65.5088H191.551C192.643 65.5088 193.488 65.7282 194.085 66.1668C194.692 66.6055 194.995 67.2262 194.995 68.0288C194.995 68.5608 194.869 69.0088 194.617 69.3728C194.375 69.7368 194.039 70.0122 193.609 70.1988C193.189 70.3855 192.727 70.4788 192.223 70.4788L192.461 70.1428C193.087 70.1428 193.623 70.2408 194.071 70.4368C194.529 70.6235 194.883 70.9082 195.135 71.2908C195.387 71.6642 195.513 72.1308 195.513 72.6908C195.513 73.5215 195.205 74.1655 194.589 74.6228C193.983 75.0802 193.063 75.3088 191.831 75.3088H187.323ZM188.359 74.4548H191.817C192.676 74.4548 193.334 74.3102 193.791 74.0208C194.249 73.7222 194.477 73.2508 194.477 72.6068C194.477 71.9722 194.249 71.5102 193.791 71.2208C193.334 70.9222 192.676 70.7728 191.817 70.7728H188.247V69.9188H191.481C192.265 69.9188 192.872 69.7695 193.301 69.4708C193.74 69.1722 193.959 68.7288 193.959 68.1408C193.959 67.5435 193.74 67.1002 193.301 66.8108C192.872 66.5122 192.265 66.3628 191.481 66.3628H188.359V74.4548ZM199.936 75.3928C199.227 75.3928 198.555 75.2808 197.92 75.0568C197.295 74.8235 196.791 74.5155 196.408 74.1328L196.898 73.3348C197.215 73.6615 197.64 73.9322 198.172 74.1468C198.713 74.3615 199.301 74.4688 199.936 74.4688C200.748 74.4688 201.369 74.2915 201.798 73.9368C202.237 73.5822 202.456 73.1062 202.456 72.5088C202.456 71.9115 202.241 71.4355 201.812 71.0808C201.392 70.7262 200.725 70.5488 199.81 70.5488H199.11V69.8068L202.134 66.0128L202.274 66.4048H196.814V65.5088H203.114V66.2228L200.09 70.0168L199.6 69.6948H199.978C201.154 69.6948 202.031 69.9562 202.61 70.4788C203.198 71.0015 203.492 71.6735 203.492 72.4948C203.492 73.0455 203.361 73.5402 203.1 73.9788C202.839 74.4175 202.442 74.7628 201.91 75.0148C201.387 75.2668 200.729 75.3928 199.936 75.3928ZM204.744 72.7328V72.0048L209.938 65.5088H211.058L205.906 72.0048L205.36 71.8368H213.242V72.7328H204.744ZM210.274 75.3088V72.7328L210.302 71.8368V69.5688H211.282V75.3088H210.274Z" fill="white"/>
</g>
</g>
<g filter="url(#filter1_d_33_1811)">
<g clip-path="url(#clip1_33_1811)">
<rect x="256" y="129" width="100" height="102" fill="#FFBA5B"/>
<path d="M289.688 170.668L294.056 160.868H296.296L300.678 170.668H298.298L294.714 162.016H295.61L292.012 170.668H289.688ZM291.872 168.568L292.474 166.846H297.514L298.13 168.568H291.872ZM300.722 170.668L305.09 160.868H307.33L311.712 170.668H309.332L305.748 162.016H306.644L303.046 170.668H300.722ZM302.906 168.568L303.508 166.846H308.548L309.164 168.568H302.906ZM311.755 170.668L316.123 160.868H318.363L322.745 170.668H320.365L316.781 162.016H317.677L314.079 170.668H311.755ZM313.939 168.568L314.541 166.846H319.581L320.197 168.568H313.939ZM278.648 200.668L279.852 190.868H280.608L279.404 200.668H278.648ZM273.342 198.008V197.238H281.812V198.008H273.342ZM275.008 200.668L276.212 190.868H276.982L275.764 200.668H275.008ZM273.79 194.298V193.528H282.26V194.298H273.79ZM285.204 195.614H290.384V196.51H285.204V195.614ZM285.316 200.668H284.28V190.868H291V191.764H285.316V200.668ZM294.064 195.614H299.244V196.51H294.064V195.614ZM294.176 200.668H293.14V190.868H299.86V191.764H294.176V200.668ZM301.999 200.668V190.868H306.227C307.319 190.868 308.164 191.088 308.761 191.526C309.368 191.965 309.671 192.586 309.671 193.388C309.671 193.92 309.545 194.368 309.293 194.732C309.051 195.096 308.715 195.372 308.285 195.558C307.865 195.745 307.403 195.838 306.899 195.838L307.137 195.502C307.763 195.502 308.299 195.6 308.747 195.796C309.205 195.983 309.559 196.268 309.811 196.65C310.063 197.024 310.189 197.49 310.189 198.05C310.189 198.881 309.881 199.525 309.265 199.982C308.659 200.44 307.739 200.668 306.507 200.668H301.999ZM303.035 199.814H306.493C307.352 199.814 308.01 199.67 308.467 199.38C308.925 199.082 309.153 198.61 309.153 197.966C309.153 197.332 308.925 196.87 308.467 196.58C308.01 196.282 307.352 196.132 306.493 196.132H302.923V195.278H306.157C306.941 195.278 307.548 195.129 307.977 194.83C308.416 194.532 308.635 194.088 308.635 193.5C308.635 192.903 308.416 192.46 307.977 192.17C307.548 191.872 306.941 191.722 306.157 191.722H303.035V199.814ZM310.986 200.668L315.466 190.868H316.488L320.968 200.668H319.876L315.76 191.47H316.18L312.064 200.668H310.986ZM312.75 198.05L313.058 197.21H318.756L319.064 198.05H312.75ZM324.815 200.752C324.115 200.752 323.448 200.64 322.813 200.416C322.178 200.183 321.674 199.875 321.301 199.492L321.791 198.694C322.099 199.021 322.519 199.292 323.051 199.506C323.592 199.721 324.176 199.828 324.801 199.828C325.632 199.828 326.262 199.646 326.691 199.282C327.13 198.909 327.349 198.424 327.349 197.826C327.349 197.406 327.246 197.047 327.041 196.748C326.845 196.44 326.509 196.202 326.033 196.034C325.557 195.866 324.904 195.782 324.073 195.782H321.987L322.491 190.868H327.853V191.764H322.897L323.415 191.274L322.981 195.39L322.463 194.886H324.297C325.286 194.886 326.08 195.008 326.677 195.25C327.274 195.493 327.704 195.834 327.965 196.272C328.236 196.702 328.371 197.206 328.371 197.784C328.371 198.335 328.24 198.839 327.979 199.296C327.718 199.744 327.326 200.099 326.803 200.36C326.28 200.622 325.618 200.752 324.815 200.752ZM330.519 200.668V190.868H334.747C335.839 190.868 336.683 191.088 337.281 191.526C337.887 191.965 338.191 192.586 338.191 193.388C338.191 193.92 338.065 194.368 337.813 194.732C337.57 195.096 337.234 195.372 336.805 195.558C336.385 195.745 335.923 195.838 335.419 195.838L335.657 195.502C336.282 195.502 336.819 195.6 337.267 195.796C337.724 195.983 338.079 196.268 338.331 196.65C338.583 197.024 338.709 197.49 338.709 198.05C338.709 198.881 338.401 199.525 337.785 199.982C337.178 200.44 336.259 200.668 335.027 200.668H330.519ZM331.555 199.814H335.013C335.871 199.814 336.529 199.67 336.987 199.38C337.444 199.082 337.673 198.61 337.673 197.966C337.673 197.332 337.444 196.87 336.987 196.58C336.529 196.282 335.871 196.132 335.013 196.132H331.443V195.278H334.677C335.461 195.278 336.067 195.129 336.497 194.83C336.935 194.532 337.155 194.088 337.155 193.5C337.155 192.903 336.935 192.46 336.497 192.17C336.067 191.872 335.461 191.722 334.677 191.722H331.555V199.814Z" fill="#212229"/>
</g>
</g>
<g filter="url(#filter2_d_33_1811)">
<g clip-path="url(#clip2_33_1811)">
<rect x="380" y="129" width="100" height="102" fill="#FFDBAA"/>
<path d="M414.059 170.668L418.427 160.868H420.667L425.049 170.668H422.669L419.085 162.016H419.981L416.383 170.668H414.059ZM416.243 168.568L416.845 166.846H421.885L422.501 168.568H416.243ZM425.092 170.668L429.46 160.868H431.7L436.082 170.668H433.702L430.118 162.016H431.014L427.416 170.668H425.092ZM427.276 168.568L427.878 166.846H432.918L433.534 168.568H427.276ZM436.125 170.668L440.493 160.868H442.733L447.115 170.668H444.735L441.151 162.016H442.047L438.449 170.668H436.125ZM438.309 168.568L438.911 166.846H443.951L444.567 168.568H438.309ZM408.993 200.668L410.197 190.868H410.953L409.749 200.668H408.993ZM403.687 198.008V197.238H412.157V198.008H403.687ZM405.353 200.668L406.557 190.868H407.327L406.109 200.668H405.353ZM404.135 194.298V193.528H412.605V194.298H404.135ZM414.583 200.668V192.394C414.583 191.741 414.775 191.214 415.157 190.812C415.54 190.411 416.091 190.21 416.809 190.21C417.089 190.21 417.36 190.248 417.621 190.322C417.883 190.397 418.102 190.514 418.279 190.672L417.943 191.414C417.803 191.293 417.64 191.204 417.453 191.148C417.267 191.083 417.066 191.05 416.851 191.05C416.431 191.05 416.109 191.167 415.885 191.4C415.661 191.634 415.549 191.979 415.549 192.436V193.556L415.577 194.018V200.668H414.583ZM413.267 194.144V193.318H417.817V194.144H413.267ZM419.355 200.668V192.394C419.355 191.741 419.546 191.214 419.929 190.812C420.311 190.411 420.862 190.21 421.581 190.21C421.861 190.21 422.131 190.248 422.393 190.322C422.654 190.397 422.873 190.514 423.051 190.672L422.715 191.414C422.575 191.293 422.411 191.204 422.225 191.148C422.038 191.083 421.837 191.05 421.623 191.05C421.203 191.05 420.881 191.167 420.657 191.4C420.433 191.634 420.321 191.979 420.321 192.436V193.556L420.349 194.018V200.668H419.355ZM418.039 194.144V193.318H422.589V194.144H418.039ZM426.734 200.738C426.034 200.738 425.404 200.58 424.844 200.262C424.293 199.945 423.859 199.506 423.542 198.946C423.225 198.377 423.066 197.724 423.066 196.986C423.066 196.24 423.225 195.586 423.542 195.026C423.859 194.466 424.293 194.032 424.844 193.724C425.404 193.407 426.034 193.248 426.734 193.248C427.378 193.248 427.952 193.393 428.456 193.682C428.969 193.972 429.375 194.396 429.674 194.956C429.982 195.507 430.136 196.184 430.136 196.986C430.136 197.78 429.987 198.456 429.688 199.016C429.389 199.576 428.983 200.006 428.47 200.304C427.966 200.594 427.387 200.738 426.734 200.738ZM426.804 199.856C427.327 199.856 427.793 199.74 428.204 199.506C428.624 199.264 428.951 198.928 429.184 198.498C429.427 198.06 429.548 197.556 429.548 196.986C429.548 196.408 429.427 195.904 429.184 195.474C428.951 195.045 428.624 194.714 428.204 194.48C427.793 194.238 427.327 194.116 426.804 194.116C426.291 194.116 425.829 194.238 425.418 194.48C425.007 194.714 424.681 195.045 424.438 195.474C424.195 195.904 424.074 196.408 424.074 196.986C424.074 197.556 424.195 198.06 424.438 198.498C424.681 198.928 425.007 199.264 425.418 199.506C425.829 199.74 426.291 199.856 426.804 199.856ZM429.576 200.668V198.456L429.674 196.972L429.534 195.488V190.28H430.528V200.668H429.576ZM437.09 200.738C436.446 200.738 435.867 200.594 435.354 200.304C434.841 200.006 434.435 199.576 434.136 199.016C433.837 198.456 433.688 197.78 433.688 196.986C433.688 196.184 433.837 195.507 434.136 194.956C434.444 194.396 434.855 193.972 435.368 193.682C435.881 193.393 436.455 193.248 437.09 193.248C437.79 193.248 438.415 193.407 438.966 193.724C439.526 194.032 439.965 194.466 440.282 195.026C440.599 195.586 440.758 196.24 440.758 196.986C440.758 197.724 440.599 198.377 440.282 198.946C439.965 199.506 439.526 199.945 438.966 200.262C438.415 200.58 437.79 200.738 437.09 200.738ZM433.296 200.668V190.28H434.29V195.488L434.15 196.972L434.248 198.456V200.668H433.296ZM437.02 199.856C437.543 199.856 438.009 199.74 438.42 199.506C438.831 199.264 439.157 198.928 439.4 198.498C439.643 198.06 439.764 197.556 439.764 196.986C439.764 196.408 439.643 195.904 439.4 195.474C439.157 195.045 438.831 194.714 438.42 194.48C438.009 194.238 437.543 194.116 437.02 194.116C436.497 194.116 436.026 194.238 435.606 194.48C435.195 194.714 434.869 195.045 434.626 195.474C434.393 195.904 434.276 196.408 434.276 196.986C434.276 197.556 434.393 198.06 434.626 198.498C434.869 198.928 435.195 199.264 435.606 199.506C436.026 199.74 436.497 199.856 437.02 199.856ZM447.349 200.668V199.044L447.307 198.778V196.062C447.307 195.437 447.13 194.956 446.775 194.62C446.43 194.284 445.912 194.116 445.221 194.116C444.745 194.116 444.293 194.196 443.863 194.354C443.434 194.513 443.07 194.723 442.771 194.984L442.323 194.242C442.697 193.925 443.145 193.682 443.667 193.514C444.19 193.337 444.741 193.248 445.319 193.248C446.271 193.248 447.004 193.486 447.517 193.962C448.04 194.429 448.301 195.143 448.301 196.104V200.668H447.349ZM444.815 200.738C444.265 200.738 443.784 200.65 443.373 200.472C442.972 200.286 442.664 200.034 442.449 199.716C442.235 199.39 442.127 199.016 442.127 198.596C442.127 198.214 442.216 197.868 442.393 197.56C442.58 197.243 442.879 196.991 443.289 196.804C443.709 196.608 444.269 196.51 444.969 196.51H447.503V197.252H444.997C444.288 197.252 443.793 197.378 443.513 197.63C443.243 197.882 443.107 198.195 443.107 198.568C443.107 198.988 443.271 199.324 443.597 199.576C443.924 199.828 444.381 199.954 444.969 199.954C445.529 199.954 446.01 199.828 446.411 199.576C446.822 199.315 447.121 198.942 447.307 198.456L447.531 199.142C447.345 199.628 447.018 200.015 446.551 200.304C446.094 200.594 445.515 200.738 444.815 200.738ZM455.607 200.668V199.044L455.565 198.778V196.062C455.565 195.437 455.388 194.956 455.033 194.62C454.688 194.284 454.17 194.116 453.479 194.116C453.003 194.116 452.551 194.196 452.121 194.354C451.692 194.513 451.328 194.723 451.029 194.984L450.581 194.242C450.955 193.925 451.403 193.682 451.925 193.514C452.448 193.337 452.999 193.248 453.577 193.248C454.529 193.248 455.262 193.486 455.775 193.962C456.298 194.429 456.559 195.143 456.559 196.104V200.668H455.607ZM453.073 200.738C452.523 200.738 452.042 200.65 451.631 200.472C451.23 200.286 450.922 200.034 450.707 199.716C450.493 199.39 450.385 199.016 450.385 198.596C450.385 198.214 450.474 197.868 450.651 197.56C450.838 197.243 451.137 196.991 451.547 196.804C451.967 196.608 452.527 196.51 453.227 196.51H455.761V197.252H453.255C452.546 197.252 452.051 197.378 451.771 197.63C451.501 197.882 451.365 198.195 451.365 198.568C451.365 198.988 451.529 199.324 451.855 199.576C452.182 199.828 452.639 199.954 453.227 199.954C453.787 199.954 454.268 199.828 454.669 199.576C455.08 199.315 455.379 198.942 455.565 198.456L455.789 199.142C455.603 199.628 455.276 200.015 454.809 200.304C454.352 200.594 453.773 200.738 453.073 200.738Z" fill="#212229"/>
</g>
</g>
<g filter="url(#filter3_d_33_1811)">
<g clip-path="url(#clip3_33_1811)">
<rect x="132" y="129" width="100" height="102" fill="#FFA220"/>
<path d="M165.231 170.668L169.599 160.868H171.839L176.221 170.668H173.841L170.257 162.016H171.153L167.555 170.668H165.231ZM167.415 168.568L168.017 166.846H173.057L173.673 168.568H167.415ZM176.264 170.668L180.632 160.868H182.872L187.254 170.668H184.874L181.29 162.016H182.186L178.588 170.668H176.264ZM178.448 168.568L179.05 166.846H184.09L184.706 168.568H178.448ZM187.297 170.668L191.665 160.868H193.905L198.287 170.668H195.907L192.323 162.016H193.219L189.621 170.668H187.297ZM189.481 168.568L190.083 166.846H195.123L195.739 168.568H189.481ZM156.365 200.668L157.569 190.868H158.325L157.121 200.668H156.365ZM151.059 198.008V197.238H159.529V198.008H151.059ZM152.725 200.668L153.929 190.868H154.699L153.481 200.668H152.725ZM151.507 194.298V193.528H159.977V194.298H151.507ZM162.921 195.614H168.101V196.51H162.921V195.614ZM163.033 200.668H161.997V190.868H168.717V191.764H163.033V200.668ZM171.78 195.614H176.96V196.51H171.78V195.614ZM171.892 200.668H170.856V190.868H177.576V191.764H171.892V200.668ZM177.683 200.668L182.163 190.868H183.185L187.665 200.668H186.573L182.457 191.47H182.877L178.761 200.668H177.683ZM179.447 198.05L179.755 197.21H185.453L185.761 198.05H179.447ZM188.236 200.668V199.954L192.31 195.964C192.683 195.6 192.963 195.283 193.15 195.012C193.336 194.732 193.462 194.471 193.528 194.228C193.593 193.986 193.626 193.757 193.626 193.542C193.626 192.973 193.43 192.525 193.038 192.198C192.655 191.872 192.086 191.708 191.33 191.708C190.751 191.708 190.238 191.797 189.79 191.974C189.351 192.152 188.973 192.427 188.656 192.8L187.942 192.184C188.324 191.736 188.814 191.391 189.412 191.148C190.009 190.906 190.676 190.784 191.414 190.784C192.076 190.784 192.65 190.892 193.136 191.106C193.621 191.312 193.994 191.615 194.256 192.016C194.526 192.418 194.662 192.889 194.662 193.43C194.662 193.748 194.615 194.06 194.522 194.368C194.438 194.676 194.279 195.003 194.046 195.348C193.822 195.684 193.49 196.067 193.052 196.496L189.314 200.164L189.034 199.772H195.11V200.668H188.236ZM196.193 200.668V199.954L200.267 195.964C200.64 195.6 200.92 195.283 201.107 195.012C201.294 194.732 201.42 194.471 201.485 194.228C201.55 193.986 201.583 193.757 201.583 193.542C201.583 192.973 201.387 192.525 200.995 192.198C200.612 191.872 200.043 191.708 199.287 191.708C198.708 191.708 198.195 191.797 197.747 191.974C197.308 192.152 196.93 192.427 196.613 192.8L195.899 192.184C196.282 191.736 196.772 191.391 197.369 191.148C197.966 190.906 198.634 190.784 199.371 190.784C200.034 190.784 200.608 190.892 201.093 191.106C201.578 191.312 201.952 191.615 202.213 192.016C202.484 192.418 202.619 192.889 202.619 193.43C202.619 193.748 202.572 194.06 202.479 194.368C202.395 194.676 202.236 195.003 202.003 195.348C201.779 195.684 201.448 196.067 201.009 196.496L197.271 200.164L196.991 199.772H203.067V200.668H196.193ZM208.211 200.752C207.455 200.752 206.783 200.556 206.195 200.164C205.607 199.763 205.145 199.194 204.809 198.456C204.473 197.71 204.305 196.814 204.305 195.768C204.305 194.723 204.473 193.832 204.809 193.094C205.145 192.348 205.607 191.778 206.195 191.386C206.783 190.985 207.455 190.784 208.211 190.784C208.967 190.784 209.639 190.985 210.227 191.386C210.815 191.778 211.277 192.348 211.613 193.094C211.958 193.832 212.131 194.723 212.131 195.768C212.131 196.814 211.958 197.71 211.613 198.456C211.277 199.194 210.815 199.763 210.227 200.164C209.639 200.556 208.967 200.752 208.211 200.752ZM208.211 199.828C208.789 199.828 209.293 199.674 209.723 199.366C210.152 199.049 210.488 198.592 210.731 197.994C210.973 197.388 211.095 196.646 211.095 195.768C211.095 194.891 210.973 194.154 210.731 193.556C210.488 192.95 210.152 192.492 209.723 192.184C209.293 191.867 208.789 191.708 208.211 191.708C207.651 191.708 207.151 191.867 206.713 192.184C206.274 192.492 205.933 192.95 205.691 193.556C205.448 194.154 205.327 194.891 205.327 195.768C205.327 196.646 205.448 197.388 205.691 197.994C205.933 198.592 206.274 199.049 206.713 199.366C207.151 199.674 207.651 199.828 208.211 199.828Z" fill="#212229"/>
</g>
</g>
<g filter="url(#filter4_d_33_1811)">
<g clip-path="url(#clip4_33_1811)">
<rect x="8" y="4" width="100" height="101" fill="#212229"/>
<path d="M41.3015 45.3088L45.6695 35.5088H47.9095L52.2915 45.3088H49.9115L46.3275 36.6568H47.2235L43.6255 45.3088H41.3015ZM43.4855 43.2088L44.0875 41.4868H49.1275L49.7435 43.2088H43.4855ZM52.3347 45.3088L56.7027 35.5088H58.9427L63.3247 45.3088H60.9447L57.3607 36.6568H58.2567L54.6587 45.3088H52.3347ZM54.5187 43.2088L55.1207 41.4868H60.1607L60.7767 43.2088H54.5187ZM63.3679 45.3088L67.7359 35.5088H69.9759L74.3579 45.3088H71.9779L68.3939 36.6568H69.2899L65.6919 45.3088H63.3679ZM65.5519 43.2088L66.1539 41.4868H71.1939L71.8099 43.2088H65.5519ZM35.9491 75.3088L37.1531 65.5088H37.9091L36.7051 75.3088H35.9491ZM30.6431 72.6488V71.8788H39.1131V72.6488H30.6431ZM32.3091 75.3088L33.5131 65.5088H34.2831L33.0651 75.3088H32.3091ZM31.0911 68.9388V68.1688H39.5611V68.9388H31.0911ZM40.5311 75.3088V74.5948L44.6051 70.6048C44.9784 70.2408 45.2584 69.9235 45.4451 69.6528C45.6318 69.3728 45.7578 69.1115 45.8231 68.8688C45.8884 68.6262 45.9211 68.3975 45.9211 68.1828C45.9211 67.6135 45.7251 67.1655 45.3331 66.8388C44.9504 66.5122 44.3811 66.3488 43.6251 66.3488C43.0464 66.3488 42.5331 66.4375 42.0851 66.6148C41.6464 66.7922 41.2684 67.0675 40.9511 67.4408L40.2371 66.8248C40.6198 66.3768 41.1098 66.0315 41.7071 65.7888C42.3044 65.5462 42.9718 65.4248 43.7091 65.4248C44.3718 65.4248 44.9458 65.5322 45.4311 65.7468C45.9164 65.9522 46.2898 66.2555 46.5511 66.6568C46.8218 67.0582 46.9571 67.5295 46.9571 68.0708C46.9571 68.3882 46.9104 68.7008 46.8171 69.0088C46.7331 69.3168 46.5744 69.6435 46.3411 69.9888C46.1171 70.3248 45.7858 70.7075 45.3471 71.1368L41.6091 74.8048L41.3291 74.4128H47.4051V75.3088H40.5311ZM50.3781 75.3088V65.9288L50.8261 66.4048H48.0681V65.5088H51.3861V75.3088H50.3781ZM53.5467 75.3088V74.5948L57.6207 70.6048C57.9941 70.2408 58.2741 69.9235 58.4607 69.6528C58.6474 69.3728 58.7734 69.1115 58.8387 68.8688C58.9041 68.6262 58.9367 68.3975 58.9367 68.1828C58.9367 67.6135 58.7407 67.1655 58.3487 66.8388C57.9661 66.5122 57.3967 66.3488 56.6407 66.3488C56.0621 66.3488 55.5487 66.4375 55.1007 66.6148C54.6621 66.7922 54.2841 67.0675 53.9667 67.4408L53.2527 66.8248C53.6354 66.3768 54.1254 66.0315 54.7227 65.7888C55.3201 65.5462 55.9874 65.4248 56.7247 65.4248C57.3874 65.4248 57.9614 65.5322 58.4467 65.7468C58.9321 65.9522 59.3054 66.2555 59.5667 66.6568C59.8374 67.0582 59.9727 67.5295 59.9727 68.0708C59.9727 68.3882 59.9261 68.7008 59.8327 69.0088C59.7487 69.3168 59.5901 69.6435 59.3567 69.9888C59.1327 70.3248 58.8014 70.7075 58.3627 71.1368L54.6247 74.8048L54.3447 74.4128H60.4207V75.3088H53.5467ZM61.5038 75.3088V74.5948L65.5778 70.6048C65.9511 70.2408 66.2311 69.9235 66.4178 69.6528C66.6044 69.3728 66.7304 69.1115 66.7958 68.8688C66.8611 68.6262 66.8938 68.3975 66.8938 68.1828C66.8938 67.6135 66.6978 67.1655 66.3058 66.8388C65.9231 66.5122 65.3538 66.3488 64.5978 66.3488C64.0191 66.3488 63.5058 66.4375 63.0578 66.6148C62.6191 66.7922 62.2411 67.0675 61.9238 67.4408L61.2098 66.8248C61.5924 66.3768 62.0824 66.0315 62.6798 65.7888C63.2771 65.5462 63.9444 65.4248 64.6818 65.4248C65.3444 65.4248 65.9184 65.5322 66.4038 65.7468C66.8891 65.9522 67.2624 66.2555 67.5238 66.6568C67.7944 67.0582 67.9298 67.5295 67.9298 68.0708C67.9298 68.3882 67.8831 68.7008 67.7898 69.0088C67.7058 69.3168 67.5471 69.6435 67.3138 69.9888C67.0898 70.3248 66.7584 70.7075 66.3198 71.1368L62.5818 74.8048L62.3018 74.4128H68.3778V75.3088H61.5038ZM69.4608 75.3088V74.5948L73.5348 70.6048C73.9081 70.2408 74.1881 69.9235 74.3748 69.6528C74.5615 69.3728 74.6875 69.1115 74.7528 68.8688C74.8181 68.6262 74.8508 68.3975 74.8508 68.1828C74.8508 67.6135 74.6548 67.1655 74.2628 66.8388C73.8801 66.5122 73.3108 66.3488 72.5548 66.3488C71.9761 66.3488 71.4628 66.4375 71.0148 66.6148C70.5761 66.7922 70.1981 67.0675 69.8808 67.4408L69.1668 66.8248C69.5495 66.3768 70.0395 66.0315 70.6368 65.7888C71.2341 65.5462 71.9015 65.4248 72.6388 65.4248C73.3015 65.4248 73.8755 65.5322 74.3608 65.7468C74.8461 65.9522 75.2195 66.2555 75.4808 66.6568C75.7515 67.0582 75.8868 67.5295 75.8868 68.0708C75.8868 68.3882 75.8401 68.7008 75.7468 69.0088C75.6628 69.3168 75.5041 69.6435 75.2708 69.9888C75.0468 70.3248 74.7155 70.7075 74.2768 71.1368L70.5388 74.8048L70.2588 74.4128H76.3348V75.3088H69.4608ZM80.6518 65.4248C81.5198 65.4248 82.2525 65.6208 82.8498 66.0128C83.4472 66.3955 83.8998 66.9508 84.2078 67.6788C84.5158 68.4068 84.6698 69.2888 84.6698 70.3248C84.6698 71.4262 84.4785 72.3548 84.0958 73.1108C83.7225 73.8668 83.1998 74.4362 82.5278 74.8188C81.8558 75.2015 81.0765 75.3928 80.1898 75.3928C79.7512 75.3928 79.3312 75.3508 78.9298 75.2668C78.5378 75.1828 78.1832 75.0475 77.8658 74.8608L78.2718 74.0488C78.5238 74.2168 78.8132 74.3382 79.1398 74.4128C79.4758 74.4782 79.8212 74.5108 80.1758 74.5108C81.2305 74.5108 82.0705 74.1748 82.6958 73.5028C83.3305 72.8308 83.6478 71.8275 83.6478 70.4928C83.6478 70.2782 83.6338 70.0215 83.6058 69.7228C83.5872 69.4242 83.5358 69.1255 83.4518 68.8268L83.8018 69.0928C83.7085 69.5782 83.5078 69.9935 83.1998 70.3388C82.9012 70.6748 82.5278 70.9315 82.0798 71.1088C81.6412 71.2862 81.1512 71.3748 80.6098 71.3748C79.9658 71.3748 79.3918 71.2535 78.8878 71.0108C78.3932 70.7682 78.0058 70.4275 77.7258 69.9888C77.4458 69.5502 77.3058 69.0322 77.3058 68.4348C77.3058 67.8188 77.4505 67.2868 77.7398 66.8388C78.0292 66.3908 78.4258 66.0455 78.9298 65.8028C79.4432 65.5508 80.0172 65.4248 80.6518 65.4248ZM80.6938 66.2788C80.2272 66.2788 79.8118 66.3675 79.4478 66.5448C79.0932 66.7128 78.8132 66.9555 78.6078 67.2728C78.4025 67.5902 78.2998 67.9682 78.2998 68.4068C78.2998 69.0508 78.5192 69.5642 78.9578 69.9468C79.4058 70.3295 80.0078 70.5208 80.7638 70.5208C81.2678 70.5208 81.7065 70.4275 82.0798 70.2408C82.4625 70.0542 82.7565 69.7975 82.9618 69.4708C83.1765 69.1442 83.2838 68.7802 83.2838 68.3788C83.2838 68.0148 83.1858 67.6742 82.9898 67.3568C82.7938 67.0395 82.5045 66.7828 82.1218 66.5868C81.7392 66.3815 81.2632 66.2788 80.6938 66.2788Z" fill="white"/>
</g>
</g>
<g filter="url(#filter5_d_33_1811)">
<g clip-path="url(#clip5_33_1811)">
<rect x="8" y="129" width="100" height="102" fill="#DA721E"/>
<path d="M47.0185 170.668L51.3865 160.868H53.6265L58.0085 170.668H55.6285L52.0445 162.016H52.9405L49.3425 170.668H47.0185ZM49.2025 168.568L49.8045 166.846H54.8445L55.4605 168.568H49.2025ZM58.0517 170.668L62.4197 160.868H64.6597L69.0417 170.668H66.6617L63.0777 162.016H63.9737L60.3757 170.668H58.0517ZM60.2357 168.568L60.8377 166.846H65.8777L66.4937 168.568H60.2357ZM33.7501 200.668L34.9541 190.868H35.7101L34.5061 200.668H33.7501ZM28.4441 198.008V197.238H36.9141V198.008H28.4441ZM30.1101 200.668L31.3141 190.868H32.0841L30.8661 200.668H30.1101ZM28.8921 194.298V193.528H37.3621V194.298H28.8921ZM39.3401 200.668V192.394C39.3401 191.741 39.5315 191.214 39.9141 190.812C40.2968 190.411 40.8475 190.21 41.5661 190.21C41.8461 190.21 42.1168 190.248 42.3781 190.322C42.6395 190.397 42.8588 190.514 43.0361 190.672L42.7001 191.414C42.5601 191.293 42.3968 191.204 42.2101 191.148C42.0235 191.083 41.8228 191.05 41.6081 191.05C41.1881 191.05 40.8661 191.167 40.6421 191.4C40.4181 191.634 40.3061 191.979 40.3061 192.436V193.556L40.3341 194.018V200.668H39.3401ZM38.0241 194.144V193.318H42.5741V194.144H38.0241ZM47.1874 200.752C46.4034 200.752 45.7267 200.64 45.1574 200.416C44.5974 200.192 44.1634 199.87 43.8554 199.45C43.5567 199.021 43.4074 198.517 43.4074 197.938C43.4074 197.378 43.552 196.902 43.8414 196.51C44.14 196.109 44.5694 195.801 45.1294 195.586C45.6987 195.372 46.3847 195.264 47.1874 195.264C47.9807 195.264 48.662 195.372 49.2314 195.586C49.8007 195.801 50.2347 196.109 50.5334 196.51C50.8414 196.902 50.9954 197.378 50.9954 197.938C50.9954 198.517 50.8414 199.021 50.5334 199.45C50.2254 199.87 49.7867 200.192 49.2174 200.416C48.648 200.64 47.9714 200.752 47.1874 200.752ZM47.1874 199.898C48.0554 199.898 48.732 199.721 49.2174 199.366C49.712 199.012 49.9594 198.531 49.9594 197.924C49.9594 197.318 49.712 196.842 49.2174 196.496C48.732 196.142 48.0554 195.964 47.1874 195.964C46.3194 195.964 45.6427 196.142 45.1574 196.496C44.672 196.842 44.4294 197.318 44.4294 197.924C44.4294 198.531 44.672 199.012 45.1574 199.366C45.6427 199.721 46.3194 199.898 47.1874 199.898ZM47.1874 195.838C46.4594 195.838 45.8387 195.74 45.3254 195.544C44.8214 195.348 44.434 195.068 44.1634 194.704C43.8927 194.331 43.7574 193.888 43.7574 193.374C43.7574 192.833 43.8974 192.371 44.1774 191.988C44.4667 191.596 44.868 191.298 45.3814 191.092C45.8947 190.887 46.4967 190.784 47.1874 190.784C47.878 190.784 48.48 190.887 48.9934 191.092C49.516 191.298 49.922 191.596 50.2114 191.988C50.5007 192.371 50.6454 192.833 50.6454 193.374C50.6454 193.888 50.51 194.331 50.2394 194.704C49.9687 195.068 49.572 195.348 49.0494 195.544C48.536 195.74 47.9154 195.838 47.1874 195.838ZM47.1874 195.166C47.9527 195.166 48.55 195.008 48.9794 194.69C49.4087 194.373 49.6234 193.948 49.6234 193.416C49.6234 192.856 49.3994 192.422 48.9514 192.114C48.5127 191.797 47.9247 191.638 47.1874 191.638C46.45 191.638 45.862 191.797 45.4234 192.114C44.9847 192.422 44.7654 192.852 44.7654 193.402C44.7654 193.944 44.9754 194.373 45.3954 194.69C45.8247 195.008 46.422 195.166 47.1874 195.166ZM55.4431 190.784C56.3111 190.784 57.0438 190.98 57.6411 191.372C58.2384 191.755 58.6911 192.31 58.9991 193.038C59.3071 193.766 59.4611 194.648 59.4611 195.684C59.4611 196.786 59.2698 197.714 58.8871 198.47C58.5138 199.226 57.9911 199.796 57.3191 200.178C56.6471 200.561 55.8678 200.752 54.9811 200.752C54.5424 200.752 54.1224 200.71 53.7211 200.626C53.3291 200.542 52.9744 200.407 52.6571 200.22L53.0631 199.408C53.3151 199.576 53.6044 199.698 53.9311 199.772C54.2671 199.838 54.6124 199.87 54.9671 199.87C56.0218 199.87 56.8618 199.534 57.4871 198.862C58.1218 198.19 58.4391 197.187 58.4391 195.852C58.4391 195.638 58.4251 195.381 58.3971 195.082C58.3784 194.784 58.3271 194.485 58.2431 194.186L58.5931 194.452C58.4998 194.938 58.2991 195.353 57.9911 195.698C57.6924 196.034 57.3191 196.291 56.8711 196.468C56.4324 196.646 55.9424 196.734 55.4011 196.734C54.7571 196.734 54.1831 196.613 53.6791 196.37C53.1844 196.128 52.7971 195.787 52.5171 195.348C52.2371 194.91 52.0971 194.392 52.0971 193.794C52.0971 193.178 52.2418 192.646 52.5311 192.198C52.8204 191.75 53.2171 191.405 53.7211 191.162C54.2344 190.91 54.8084 190.784 55.4431 190.784ZM55.4851 191.638C55.0184 191.638 54.6031 191.727 54.2391 191.904C53.8844 192.072 53.6044 192.315 53.3991 192.632C53.1938 192.95 53.0911 193.328 53.0911 193.766C53.0911 194.41 53.3104 194.924 53.7491 195.306C54.1971 195.689 54.7991 195.88 55.5551 195.88C56.0591 195.88 56.4978 195.787 56.8711 195.6C57.2538 195.414 57.5478 195.157 57.7531 194.83C57.9678 194.504 58.0751 194.14 58.0751 193.738C58.0751 193.374 57.9771 193.034 57.7811 192.716C57.5851 192.399 57.2958 192.142 56.9131 191.946C56.5304 191.741 56.0544 191.638 55.4851 191.638ZM64.8283 200.752C64.0723 200.752 63.4003 200.556 62.8123 200.164C62.2243 199.763 61.7623 199.194 61.4263 198.456C61.0903 197.71 60.9223 196.814 60.9223 195.768C60.9223 194.723 61.0903 193.832 61.4263 193.094C61.7623 192.348 62.2243 191.778 62.8123 191.386C63.4003 190.985 64.0723 190.784 64.8283 190.784C65.5843 190.784 66.2563 190.985 66.8443 191.386C67.4323 191.778 67.8943 192.348 68.2303 193.094C68.5757 193.832 68.7483 194.723 68.7483 195.768C68.7483 196.814 68.5757 197.71 68.2303 198.456C67.8943 199.194 67.4323 199.763 66.8443 200.164C66.2563 200.556 65.5843 200.752 64.8283 200.752ZM64.8283 199.828C65.407 199.828 65.911 199.674 66.3403 199.366C66.7697 199.049 67.1057 198.592 67.3483 197.994C67.591 197.388 67.7123 196.646 67.7123 195.768C67.7123 194.891 67.591 194.154 67.3483 193.556C67.1057 192.95 66.7697 192.492 66.3403 192.184C65.911 191.867 65.407 191.708 64.8283 191.708C64.2683 191.708 63.769 191.867 63.3303 192.184C62.8917 192.492 62.551 192.95 62.3083 193.556C62.0657 194.154 61.9443 194.891 61.9443 195.768C61.9443 196.646 62.0657 197.388 62.3083 197.994C62.551 198.592 62.8917 199.049 63.3303 199.366C63.769 199.674 64.2683 199.828 64.8283 199.828ZM74.0979 200.752C73.3419 200.752 72.6699 200.556 72.0819 200.164C71.4939 199.763 71.0319 199.194 70.6959 198.456C70.3599 197.71 70.1919 196.814 70.1919 195.768C70.1919 194.723 70.3599 193.832 70.6959 193.094C71.0319 192.348 71.4939 191.778 72.0819 191.386C72.6699 190.985 73.3419 190.784 74.0979 190.784C74.8539 190.784 75.5259 190.985 76.1139 191.386C76.7019 191.778 77.1639 192.348 77.4999 193.094C77.8452 193.832 78.0179 194.723 78.0179 195.768C78.0179 196.814 77.8452 197.71 77.4999 198.456C77.1639 199.194 76.7019 199.763 76.1139 200.164C75.5259 200.556 74.8539 200.752 74.0979 200.752ZM74.0979 199.828C74.6765 199.828 75.1805 199.674 75.6099 199.366C76.0392 199.049 76.3752 198.592 76.6179 197.994C76.8605 197.388 76.9819 196.646 76.9819 195.768C76.9819 194.891 76.8605 194.154 76.6179 193.556C76.3752 192.95 76.0392 192.492 75.6099 192.184C75.1805 191.867 74.6765 191.708 74.0979 191.708C73.5379 191.708 73.0385 191.867 72.5999 192.184C72.1612 192.492 71.8205 192.95 71.5779 193.556C71.3352 194.154 71.2139 194.891 71.2139 195.768C71.2139 196.646 71.3352 197.388 71.5779 197.994C71.8205 198.592 72.1612 199.049 72.5999 199.366C73.0385 199.674 73.5379 199.828 74.0979 199.828ZM83.3674 200.752C82.6114 200.752 81.9394 200.556 81.3514 200.164C80.7634 199.763 80.3014 199.194 79.9654 198.456C79.6294 197.71 79.4614 196.814 79.4614 195.768C79.4614 194.723 79.6294 193.832 79.9654 193.094C80.3014 192.348 80.7634 191.778 81.3514 191.386C81.9394 190.985 82.6114 190.784 83.3674 190.784C84.1234 190.784 84.7954 190.985 85.3834 191.386C85.9714 191.778 86.4334 192.348 86.7694 193.094C87.1147 193.832 87.2874 194.723 87.2874 195.768C87.2874 196.814 87.1147 197.71 86.7694 198.456C86.4334 199.194 85.9714 199.763 85.3834 200.164C84.7954 200.556 84.1234 200.752 83.3674 200.752ZM83.3674 199.828C83.9461 199.828 84.4501 199.674 84.8794 199.366C85.3087 199.049 85.6447 198.592 85.8874 197.994C86.1301 197.388 86.2514 196.646 86.2514 195.768C86.2514 194.891 86.1301 194.154 85.8874 193.556C85.6447 192.95 85.3087 192.492 84.8794 192.184C84.4501 191.867 83.9461 191.708 83.3674 191.708C82.8074 191.708 82.3081 191.867 81.8694 192.184C81.4307 192.492 81.0901 192.95 80.8474 193.556C80.6047 194.154 80.4834 194.891 80.4834 195.768C80.4834 196.646 80.6047 197.388 80.8474 197.994C81.0901 198.592 81.4307 199.049 81.8694 199.366C82.3081 199.674 82.8074 199.828 83.3674 199.828Z" fill="white"/>
</g>
</g>
<g filter="url(#filter6_d_33_1811)">
<g clip-path="url(#clip6_33_1811)">
<rect x="256" y="4" width="100" height="101" fill="#3C3D4A"/>
<path d="M289.688 45.3088L294.056 35.5088H296.296L300.678 45.3088H298.298L294.714 36.6568H295.61L292.012 45.3088H289.688ZM291.872 43.2088L292.474 41.4868H297.514L298.13 43.2088H291.872ZM300.722 45.3088L305.09 35.5088H307.33L311.712 45.3088H309.332L305.748 36.6568H306.644L303.046 45.3088H300.722ZM302.906 43.2088L303.508 41.4868H308.548L309.164 43.2088H302.906ZM311.755 45.3088L316.123 35.5088H318.363L322.745 45.3088H320.365L316.781 36.6568H317.677L314.079 45.3088H311.755ZM313.939 43.2088L314.541 41.4868H319.581L320.197 43.2088H313.939ZM278.696 75.3088L279.9 65.5088H280.656L279.452 75.3088H278.696ZM273.39 72.6488V71.8788H281.86V72.6488H273.39ZM275.056 75.3088L276.26 65.5088H277.03L275.812 75.3088H275.056ZM273.838 68.9388V68.1688H282.308V68.9388H273.838ZM286.386 75.3928C285.677 75.3928 285.005 75.2808 284.37 75.0568C283.745 74.8235 283.241 74.5155 282.858 74.1328L283.348 73.3348C283.666 73.6615 284.09 73.9322 284.622 74.1468C285.164 74.3615 285.752 74.4688 286.386 74.4688C287.198 74.4688 287.819 74.2915 288.248 73.9368C288.687 73.5822 288.906 73.1062 288.906 72.5088C288.906 71.9115 288.692 71.4355 288.262 71.0808C287.842 70.7262 287.175 70.5488 286.26 70.5488H285.56V69.8068L288.584 66.0128L288.724 66.4048H283.264V65.5088H289.564V66.2228L286.54 70.0168L286.05 69.6948H286.428C287.604 69.6948 288.482 69.9562 289.06 70.4788C289.648 71.0015 289.942 71.6735 289.942 72.4948C289.942 73.0455 289.812 73.5402 289.55 73.9788C289.289 74.4175 288.892 74.7628 288.36 75.0148C287.838 75.2668 287.18 75.3928 286.386 75.3928ZM296.487 75.3928C295.749 75.3928 295.068 75.2715 294.443 75.0288C293.817 74.7768 293.276 74.4268 292.819 73.9788C292.361 73.5308 292.002 73.0035 291.741 72.3968C291.489 71.7902 291.363 71.1275 291.363 70.4088C291.363 69.6902 291.489 69.0275 291.741 68.4208C292.002 67.8142 292.361 67.2868 292.819 66.8388C293.285 66.3908 293.831 66.0455 294.457 65.8028C295.082 65.5508 295.763 65.4248 296.501 65.4248C297.21 65.4248 297.877 65.5462 298.503 65.7888C299.128 66.0222 299.655 66.3768 300.085 66.8528L299.427 67.5108C299.025 67.1002 298.582 66.8062 298.097 66.6288C297.611 66.4422 297.089 66.3488 296.529 66.3488C295.941 66.3488 295.395 66.4515 294.891 66.6568C294.387 66.8528 293.948 67.1375 293.575 67.5108C293.201 67.8748 292.907 68.3042 292.693 68.7988C292.487 69.2842 292.385 69.8208 292.385 70.4088C292.385 70.9968 292.487 71.5382 292.693 72.0328C292.907 72.5182 293.201 72.9475 293.575 73.3208C293.948 73.6848 294.387 73.9695 294.891 74.1748C295.395 74.3708 295.941 74.4688 296.529 74.4688C297.089 74.4688 297.611 74.3755 298.097 74.1888C298.582 74.0022 299.025 73.7035 299.427 73.2928L300.085 73.9508C299.655 74.4268 299.128 74.7862 298.503 75.0288C297.877 75.2715 297.205 75.3928 296.487 75.3928ZM304.324 75.3928C303.614 75.3928 302.942 75.2808 302.308 75.0568C301.682 74.8235 301.178 74.5155 300.796 74.1328L301.286 73.3348C301.603 73.6615 302.028 73.9322 302.56 74.1468C303.101 74.3615 303.689 74.4688 304.324 74.4688C305.136 74.4688 305.756 74.2915 306.186 73.9368C306.624 73.5822 306.844 73.1062 306.844 72.5088C306.844 71.9115 306.629 71.4355 306.2 71.0808C305.78 70.7262 305.112 70.5488 304.198 70.5488H303.498V69.8068L306.522 66.0128L306.662 66.4048H301.202V65.5088H307.502V66.2228L304.478 70.0168L303.988 69.6948H304.366C305.542 69.6948 306.419 69.9562 306.998 70.4788C307.586 71.0015 307.88 71.6735 307.88 72.4948C307.88 73.0455 307.749 73.5402 307.488 73.9788C307.226 74.4175 306.83 74.7628 306.298 75.0148C305.775 75.2668 305.117 75.3928 304.324 75.3928ZM310.168 75.3088V65.5088H314.158C315.203 65.5088 316.118 65.7188 316.902 66.1388C317.695 66.5495 318.311 67.1235 318.75 67.8608C319.189 68.5982 319.408 69.4475 319.408 70.4088C319.408 71.3702 319.189 72.2195 318.75 72.9568C318.311 73.6942 317.695 74.2728 316.902 74.6928C316.118 75.1035 315.203 75.3088 314.158 75.3088H310.168ZM311.204 74.4128H314.102C314.97 74.4128 315.721 74.2448 316.356 73.9088C317 73.5635 317.499 73.0922 317.854 72.4948C318.209 71.8882 318.386 71.1928 318.386 70.4088C318.386 69.6155 318.209 68.9202 317.854 68.3228C317.499 67.7255 317 67.2588 316.356 66.9228C315.721 66.5775 314.97 66.4048 314.102 66.4048H311.204V74.4128ZM320.699 72.7328V72.0048L325.893 65.5088H327.013L321.861 72.0048L321.315 71.8368H329.197V72.7328H320.699ZM326.229 75.3088V72.7328L326.257 71.8368V69.5688H327.237V75.3088H326.229ZM329.422 75.3088L333.902 65.5088H334.924L339.404 75.3088H338.312L334.196 66.1108H334.616L330.5 75.3088H329.422ZM331.186 72.6908L331.494 71.8508H337.192L337.5 72.6908H331.186Z" fill="white"/>
</g>
</g>
<g filter="url(#filter7_d_33_1811)">
<g clip-path="url(#clip7_33_1811)">
<rect x="380" y="4" width="100" height="101" fill="#70738B"/>
<path d="M414.231 45.3088L418.599 35.5088H420.839L425.221 45.3088H422.841L419.257 36.6568H420.153L416.555 45.3088H414.231ZM416.415 43.2088L417.017 41.4868H422.057L422.673 43.2088H416.415ZM425.264 45.3088L429.632 35.5088H431.872L436.254 45.3088H433.874L430.29 36.6568H431.186L427.588 45.3088H425.264ZM427.448 43.2088L428.05 41.4868H433.09L433.706 43.2088H427.448ZM436.297 45.3088L440.665 35.5088H442.905L447.287 45.3088H444.907L441.323 36.6568H442.219L438.621 45.3088H436.297ZM438.481 43.2088L439.083 41.4868H444.123L444.739 43.2088H438.481ZM405.269 75.3088L406.473 65.5088H407.229L406.025 75.3088H405.269ZM399.963 72.6488V71.8788H408.433V72.6488H399.963ZM401.629 75.3088L402.833 65.5088H403.603L402.385 75.3088H401.629ZM400.411 68.9388V68.1688H408.881V68.9388H400.411ZM411.755 75.3088L415.983 65.9568L416.291 66.4048H410.229L410.747 65.9148V68.2388H409.753V65.5088H416.949V66.2228L412.847 75.3088H411.755ZM421.91 75.3928C421.154 75.3928 420.482 75.1968 419.894 74.8048C419.306 74.4035 418.844 73.8342 418.508 73.0968C418.172 72.3502 418.004 71.4542 418.004 70.4088C418.004 69.3635 418.172 68.4722 418.508 67.7348C418.844 66.9882 419.306 66.4188 419.894 66.0268C420.482 65.6255 421.154 65.4248 421.91 65.4248C422.666 65.4248 423.338 65.6255 423.926 66.0268C424.514 66.4188 424.976 66.9882 425.312 67.7348C425.657 68.4722 425.83 69.3635 425.83 70.4088C425.83 71.4542 425.657 72.3502 425.312 73.0968C424.976 73.8342 424.514 74.4035 423.926 74.8048C423.338 75.1968 422.666 75.3928 421.91 75.3928ZM421.91 74.4688C422.488 74.4688 422.992 74.3148 423.422 74.0068C423.851 73.6895 424.187 73.2322 424.43 72.6348C424.672 72.0282 424.794 71.2862 424.794 70.4088C424.794 69.5315 424.672 68.7942 424.43 68.1968C424.187 67.5902 423.851 67.1328 423.422 66.8248C422.992 66.5075 422.488 66.3488 421.91 66.3488C421.35 66.3488 420.85 66.5075 420.412 66.8248C419.973 67.1328 419.632 67.5902 419.39 68.1968C419.147 68.7942 419.026 69.5315 419.026 70.4088C419.026 71.2862 419.147 72.0282 419.39 72.6348C419.632 73.2322 419.973 73.6895 420.412 74.0068C420.85 74.3148 421.35 74.4688 421.91 74.4688ZM428.886 75.3088L433.114 65.9568L433.422 66.4048H427.36L427.878 65.9148V68.2388H426.884V65.5088H434.08V66.2228L429.978 75.3088H428.886ZM438.211 75.3928C437.502 75.3928 436.83 75.2808 436.195 75.0568C435.57 74.8235 435.066 74.5155 434.683 74.1328L435.173 73.3348C435.49 73.6615 435.915 73.9322 436.447 74.1468C436.988 74.3615 437.576 74.4688 438.211 74.4688C439.023 74.4688 439.644 74.2915 440.073 73.9368C440.512 73.5822 440.731 73.1062 440.731 72.5088C440.731 71.9115 440.516 71.4355 440.087 71.0808C439.667 70.7262 439 70.5488 438.085 70.5488H437.385V69.8068L440.409 66.0128L440.549 66.4048H435.089V65.5088H441.389V66.2228L438.365 70.0168L437.875 69.6948H438.253C439.429 69.6948 440.306 69.9562 440.885 70.4788C441.473 71.0015 441.767 71.6735 441.767 72.4948C441.767 73.0455 441.636 73.5402 441.375 73.9788C441.114 74.4175 440.717 74.7628 440.185 75.0148C439.662 75.2668 439.004 75.3928 438.211 75.3928ZM446.911 75.3928C446.127 75.3928 445.451 75.2808 444.881 75.0568C444.321 74.8328 443.887 74.5108 443.579 74.0908C443.281 73.6615 443.131 73.1575 443.131 72.5788C443.131 72.0188 443.276 71.5428 443.565 71.1508C443.864 70.7495 444.293 70.4415 444.853 70.2268C445.423 70.0122 446.109 69.9048 446.911 69.9048C447.705 69.9048 448.386 70.0122 448.955 70.2268C449.525 70.4415 449.959 70.7495 450.257 71.1508C450.565 71.5428 450.719 72.0188 450.719 72.5788C450.719 73.1575 450.565 73.6615 450.257 74.0908C449.949 74.5108 449.511 74.8328 448.941 75.0568C448.372 75.2808 447.695 75.3928 446.911 75.3928ZM446.911 74.5388C447.779 74.5388 448.456 74.3615 448.941 74.0068C449.436 73.6522 449.683 73.1715 449.683 72.5648C449.683 71.9582 449.436 71.4822 448.941 71.1368C448.456 70.7822 447.779 70.6048 446.911 70.6048C446.043 70.6048 445.367 70.7822 444.881 71.1368C444.396 71.4822 444.153 71.9582 444.153 72.5648C444.153 73.1715 444.396 73.6522 444.881 74.0068C445.367 74.3615 446.043 74.5388 446.911 74.5388ZM446.911 70.4788C446.183 70.4788 445.563 70.3808 445.049 70.1848C444.545 69.9888 444.158 69.7088 443.887 69.3448C443.617 68.9715 443.481 68.5282 443.481 68.0148C443.481 67.4735 443.621 67.0115 443.901 66.6288C444.191 66.2368 444.592 65.9382 445.105 65.7328C445.619 65.5275 446.221 65.4248 446.911 65.4248C447.602 65.4248 448.204 65.5275 448.717 65.7328C449.24 65.9382 449.646 66.2368 449.935 66.6288C450.225 67.0115 450.369 67.4735 450.369 68.0148C450.369 68.5282 450.234 68.9715 449.963 69.3448C449.693 69.7088 449.296 69.9888 448.773 70.1848C448.26 70.3808 447.639 70.4788 446.911 70.4788ZM446.911 69.8068C447.677 69.8068 448.274 69.6482 448.703 69.3308C449.133 69.0135 449.347 68.5888 449.347 68.0568C449.347 67.4968 449.123 67.0628 448.675 66.7548C448.237 66.4375 447.649 66.2788 446.911 66.2788C446.174 66.2788 445.586 66.4375 445.147 66.7548C444.709 67.0628 444.489 67.4922 444.489 68.0428C444.489 68.5842 444.699 69.0135 445.119 69.3308C445.549 69.6482 446.146 69.8068 446.911 69.8068ZM452.983 75.3088V65.5088H457.211C458.303 65.5088 459.148 65.7282 459.745 66.1668C460.352 66.6055 460.655 67.2262 460.655 68.0288C460.655 68.5608 460.529 69.0088 460.277 69.3728C460.034 69.7368 459.698 70.0122 459.269 70.1988C458.849 70.3855 458.387 70.4788 457.883 70.4788L458.121 70.1428C458.746 70.1428 459.283 70.2408 459.731 70.4368C460.188 70.6235 460.543 70.9082 460.795 71.2908C461.047 71.6642 461.173 72.1308 461.173 72.6908C461.173 73.5215 460.865 74.1655 460.249 74.6228C459.642 75.0802 458.723 75.3088 457.491 75.3088H452.983ZM454.019 74.4548H457.477C458.336 74.4548 458.994 74.3102 459.451 74.0208C459.908 73.7222 460.137 73.2508 460.137 72.6068C460.137 71.9722 459.908 71.5102 459.451 71.2208C458.994 70.9222 458.336 70.7728 457.477 70.7728H453.907V69.9188H457.141C457.925 69.9188 458.532 69.7695 458.961 69.4708C459.4 69.1722 459.619 68.7288 459.619 68.1408C459.619 67.5435 459.4 67.1002 458.961 66.8108C458.532 66.5122 457.925 66.3628 457.141 66.3628H454.019V74.4548Z" fill="white"/>
</g>
</g>
<defs>
<filter id="filter0_d_33_1811" x="124" y="0" width="116" height="117" filterUnits="userSpaceOnUse" color-interpolation-filters="sRGB">
<feFlood flood-opacity="0" result="BackgroundImageFix"/>
<feColorMatrix in="SourceAlpha" type="matrix" values="0 0 0 0 0 0 0 0 0 0 0 0 0 0 0 0 0 0 127 0" result="hardAlpha"/>
<feOffset dy="4"/>
<feGaussianBlur stdDeviation="4"/>
<feComposite in2="hardAlpha" operator="out"/>
<feColorMatrix type="matrix" values="0 0 0 0 0 0 0 0 0 0 0 0 0 0 0 0 0 0 0.25 0"/>
<feBlend mode="normal" in2="BackgroundImageFix" result="effect1_dropShadow_33_1811"/>
<feBlend mode="normal" in="SourceGraphic" in2="effect1_dropShadow_33_1811" result="shape"/>
</filter>
<filter id="filter1_d_33_1811" x="248" y="125" width="116" height="118" filterUnits="userSpaceOnUse" color-interpolation-filters="sRGB">
<feFlood flood-opacity="0" result="BackgroundImageFix"/>
<feColorMatrix in="SourceAlpha" type="matrix" values="0 0 0 0 0 0 0 0 0 0 0 0 0 0 0 0 0 0 127 0" result="hardAlpha"/>
<feOffset dy="4"/>
<feGaussianBlur stdDeviation="4"/>
<feComposite in2="hardAlpha" operator="out"/>
<feColorMatrix type="matrix" values="0 0 0 0 0 0 0 0 0 0 0 0 0 0 0 0 0 0 0.25 0"/>
<feBlend mode="normal" in2="BackgroundImageFix" result="effect1_dropShadow_33_1811"/>
<feBlend mode="normal" in="SourceGraphic" in2="effect1_dropShadow_33_1811" result="shape"/>
</filter>
<filter id="filter2_d_33_1811" x="372" y="125" width="116" height="118" filterUnits="userSpaceOnUse" color-interpolation-filters="sRGB">
<feFlood flood-opacity="0" result="BackgroundImageFix"/>
<feColorMatrix in="SourceAlpha" type="matrix" values="0 0 0 0 0 0 0 0 0 0 0 0 0 0 0 0 0 0 127 0" result="hardAlpha"/>
<feOffset dy="4"/>
<feGaussianBlur stdDeviation="4"/>
<feComposite in2="hardAlpha" operator="out"/>
<feColorMatrix type="matrix" values="0 0 0 0 0 0 0 0 0 0 0 0 0 0 0 0 0 0 0.25 0"/>
<feBlend mode="normal" in2="BackgroundImageFix" result="effect1_dropShadow_33_1811"/>
<feBlend mode="normal" in="SourceGraphic" in2="effect1_dropShadow_33_1811" result="shape"/>
</filter>
<filter id="filter3_d_33_1811" x="124" y="125" width="116" height="118" filterUnits="userSpaceOnUse" color-interpolation-filters="sRGB">
<feFlood flood-opacity="0" result="BackgroundImageFix"/>
<feColorMatrix in="SourceAlpha" type="matrix" values="0 0 0 0 0 0 0 0 0 0 0 0 0 0 0 0 0 0 127 0" result="hardAlpha"/>
<feOffset dy="4"/>
<feGaussianBlur stdDeviation="4"/>
<feComposite in2="hardAlpha" operator="out"/>
<feColorMatrix type="matrix" values="0 0 0 0 0 0 0 0 0 0 0 0 0 0 0 0 0 0 0.25 0"/>
<feBlend mode="normal" in2="BackgroundImageFix" result="effect1_dropShadow_33_1811"/>
<feBlend mode="normal" in="SourceGraphic" in2="effect1_dropShadow_33_1811" result="shape"/>
</filter>
<filter id="filter4_d_33_1811" x="0" y="0" width="116" height="117" filterUnits="userSpaceOnUse" color-interpolation-filters="sRGB">
<feFlood flood-opacity="0" result="BackgroundImageFix"/>
<feColorMatrix in="SourceAlpha" type="matrix" values="0 0 0 0 0 0 0 0 0 0 0 0 0 0 0 0 0 0 127 0" result="hardAlpha"/>
<feOffset dy="4"/>
<feGaussianBlur stdDeviation="4"/>
<feComposite in2="hardAlpha" operator="out"/>
<feColorMatrix type="matrix" values="0 0 0 0 0 0 0 0 0 0 0 0 0 0 0 0 0 0 0.25 0"/>
<feBlend mode="normal" in2="BackgroundImageFix" result="effect1_dropShadow_33_1811"/>
<feBlend mode="normal" in="SourceGraphic" in2="effect1_dropShadow_33_1811" result="shape"/>
</filter>
<filter id="filter5_d_33_1811" x="0" y="125" width="116" height="118" filterUnits="userSpaceOnUse" color-interpolation-filters="sRGB">
<feFlood flood-opacity="0" result="BackgroundImageFix"/>
<feColorMatrix in="SourceAlpha" type="matrix" values="0 0 0 0 0 0 0 0 0 0 0 0 0 0 0 0 0 0 127 0" result="hardAlpha"/>
<feOffset dy="4"/>
<feGaussianBlur stdDeviation="4"/>
<feComposite in2="hardAlpha" operator="out"/>
<feColorMatrix type="matrix" values="0 0 0 0 0 0 0 0 0 0 0 0 0 0 0 0 0 0 0.25 0"/>
<feBlend mode="normal" in2="BackgroundImageFix" result="effect1_dropShadow_33_1811"/>
<feBlend mode="normal" in="SourceGraphic" in2="effect1_dropShadow_33_1811" result="shape"/>
</filter>
<filter id="filter6_d_33_1811" x="248" y="0" width="116" height="117" filterUnits="userSpaceOnUse" color-interpolation-filters="sRGB">
<feFlood flood-opacity="0" result="BackgroundImageFix"/>
<feColorMatrix in="SourceAlpha" type="matrix" values="0 0 0 0 0 0 0 0 0 0 0 0 0 0 0 0 0 0 127 0" result="hardAlpha"/>
<feOffset dy="4"/>
<feGaussianBlur stdDeviation="4"/>
<feComposite in2="hardAlpha" operator="out"/>
<feColorMatrix type="matrix" values="0 0 0 0 0 0 0 0 0 0 0 0 0 0 0 0 0 0 0.25 0"/>
<feBlend mode="normal" in2="BackgroundImageFix" result="effect1_dropShadow_33_1811"/>
<feBlend mode="normal" in="SourceGraphic" in2="effect1_dropShadow_33_1811" result="shape"/>
</filter>
<filter id="filter7_d_33_1811" x="372" y="0" width="116" height="117" filterUnits="userSpaceOnUse" color-interpolation-filters="sRGB">
<feFlood flood-opacity="0" result="BackgroundImageFix"/>
<feColorMatrix in="SourceAlpha" type="matrix" values="0 0 0 0 0 0 0 0 0 0 0 0 0 0 0 0 0 0 127 0" result="hardAlpha"/>
<feOffset dy="4"/>
<feGaussianBlur stdDeviation="4"/>
<feComposite in2="hardAlpha" operator="out"/>
<feColorMatrix type="matrix" values="0 0 0 0 0 0 0 0 0 0 0 0 0 0 0 0 0 0 0.25 0"/>
<feBlend mode="normal" in2="BackgroundImageFix" result="effect1_dropShadow_33_1811"/>
<feBlend mode="normal" in="SourceGraphic" in2="effect1_dropShadow_33_1811" result="shape"/>
</filter>
<clipPath id="clip0_33_1811">
<rect x="132" y="4" width="100" height="101" rx="50" fill="white"/>
</clipPath>
<clipPath id="clip1_33_1811">
<rect x="256" y="129" width="100" height="102" rx="50" fill="white"/>
</clipPath>
<clipPath id="clip2_33_1811">
<rect x="380" y="129" width="100" height="102" rx="50" fill="white"/>
</clipPath>
<clipPath id="clip3_33_1811">
<rect x="132" y="129" width="100" height="102" rx="50" fill="white"/>
</clipPath>
<clipPath id="clip4_33_1811">
<rect x="8" y="4" width="100" height="101" rx="50" fill="white"/>
</clipPath>
<clipPath id="clip5_33_1811">
<rect x="8" y="129" width="100" height="102" rx="50" fill="white"/>
</clipPath>
<clipPath id="clip6_33_1811">
<rect x="256" y="4" width="100" height="101" rx="50" fill="white"/>
</clipPath>
<clipPath id="clip7_33_1811">
<rect x="380" y="4" width="100" height="101" rx="50" fill="white"/>
</clipPath>
</defs>
</svg>
