<svg width="56" height="56" viewBox="0 0 56 56" fill="none" xmlns="http://www.w3.org/2000/svg">
<path d="M28 29.8555C29.0355 29.8555 29.875 29.016 29.875 27.9805C29.875 26.9449 29.0355 26.1055 28 26.1055C26.9645 26.1055 26.125 26.9449 26.125 27.9805C26.125 29.016 26.9645 29.8555 28 29.8555Z" fill="#555555"/>
<path d="M28 32.2795C25.7464 32.334 23.4983 32.0302 21.34 31.3795C20.343 31.0634 19.4131 30.5655 18.5973 29.911C18.2859 29.6873 18.0267 29.399 17.8373 29.0658C17.6479 28.7326 17.5328 28.3623 17.5 27.9805C17.5 26.7407 18.862 25.5257 21.1435 24.7307C23.3595 24.0263 25.6749 23.6849 28 23.7197C30.294 23.6877 32.5784 24.0229 34.7665 24.7127C35.7267 25.0188 36.6251 25.4926 37.42 26.1122C37.726 26.3254 37.9813 26.6032 38.168 26.9261C38.3546 27.249 38.468 27.6089 38.5 27.9805C38.5 29.269 36.9775 30.5747 34.525 31.3862C32.4084 32.0157 30.2079 32.317 28 32.2795ZM28 24.6167C25.7756 24.587 23.5606 24.9115 21.4382 25.5782C19.3382 26.311 18.397 27.313 18.397 27.9782C18.397 28.6742 19.4088 29.7685 21.6302 30.5282C23.6951 31.1476 25.845 31.4359 28 31.3825C30.1123 31.4202 32.2179 31.1344 34.2438 30.535C36.55 29.7707 37.6 28.675 37.6 27.9805C37.5622 27.7421 37.4753 27.5142 37.3449 27.3112C37.2145 27.1081 37.0435 26.9343 36.8425 26.8007C36.1313 26.2511 35.3288 25.8311 34.4717 25.5602C32.3785 24.903 30.1937 24.5845 28 24.6167Z" fill="#555555"/>
<path d="M23.7397 37.3324C23.3898 37.3404 23.0441 37.2555 22.7377 37.0864C21.6637 36.4669 21.2917 34.6804 21.7425 32.3066C22.2394 30.0349 23.1006 27.8586 24.2925 25.8619C25.4105 23.8587 26.8418 22.0473 28.5322 20.4964C29.2771 19.8174 30.1364 19.2758 31.0702 18.8966C31.408 18.7383 31.7764 18.6562 32.1495 18.6562C32.5225 18.6562 32.8909 18.7383 33.2287 18.8966C34.3455 19.5401 34.7152 21.5111 34.194 24.0409C33.6816 26.1893 32.8429 28.2464 31.707 30.1406C30.6283 32.1201 29.242 33.9157 27.6 35.4604C26.828 36.1659 25.9322 36.7226 24.9577 37.1021C24.5676 37.2469 24.1558 37.3247 23.7397 37.3324ZM25.0695 26.3074C23.9325 28.2193 23.1072 30.3001 22.6245 32.4716C22.2097 34.6579 22.608 35.9726 23.187 36.3071C23.787 36.6544 25.2435 36.3251 27.012 34.7801C28.5795 33.3003 29.9026 31.5815 30.9322 29.6876C32.0204 27.8767 32.825 25.91 33.318 23.8556C33.8085 21.4744 33.3847 20.0164 32.7832 19.6699C32.5578 19.5835 32.3169 19.5448 32.0757 19.5563C31.8346 19.5678 31.5984 19.6292 31.3822 19.7366C30.551 20.0796 29.7868 20.5666 29.1247 21.1751C27.5097 22.6607 26.1425 24.3948 25.0747 26.3119L25.0695 26.3074Z" fill="#555555"/>
<path d="M32.258 37.342C31.2418 37.342 29.951 36.727 28.607 35.5712C26.8871 34.0062 25.4315 32.1733 24.2968 30.1435C23.1198 28.1743 22.2655 26.0294 21.7663 23.7902C21.5498 22.8051 21.5096 21.7894 21.6478 20.7902C21.6797 20.4196 21.7926 20.0605 21.9784 19.7382C22.1642 19.4159 22.4185 19.1383 22.7233 18.925C23.8385 18.2792 25.7308 18.943 27.662 20.6575C29.2675 22.1741 30.6308 23.928 31.7045 25.858C32.8808 27.7812 33.744 29.8791 34.262 32.0732C34.4879 33.0945 34.5227 34.1488 34.3648 35.1827C34.3272 35.564 34.2076 35.9327 34.0142 36.2635C33.8208 36.5942 33.5582 36.8792 33.2443 37.099C32.9429 37.266 32.6025 37.3499 32.258 37.342ZM25.073 29.692C26.1616 31.6318 27.552 33.386 29.192 34.8887C30.8788 36.34 32.2168 36.652 32.792 36.3137C33.392 35.965 33.8345 34.5415 33.3785 32.2382C32.8789 30.1434 32.0509 28.1409 30.9253 26.305C29.9007 24.4578 28.5993 22.7784 27.0665 21.325C25.2485 19.711 23.774 19.3502 23.1733 19.6982C22.986 19.8504 22.8324 20.0397 22.722 20.2543C22.6116 20.4688 22.5469 20.7039 22.532 20.9447C22.4128 21.8358 22.4516 22.7409 22.6468 23.6185C23.127 25.7598 23.9463 27.8107 25.0738 29.6935L25.073 29.692Z" fill="#555555"/>
<rect x="1" y="1" width="54" height="54" rx="27" stroke="#555555" stroke-width="2"/>
</svg>
