<svg width="56" height="56" viewBox="0 0 56 56" fill="none" xmlns="http://www.w3.org/2000/svg">
<path d="M34.5391 28.4805C34.8594 29.043 35.0977 29.6289 35.2539 30.2383C35.4102 30.8477 35.4922 31.4766 35.5 32.125V33.332L28 37.0938L20.5 33.332C20.5 32.8633 20.5039 32.4258 20.5117 32.0195C20.5195 31.6133 20.5547 31.2188 20.6172 30.8359C20.6797 30.4531 20.7734 30.0703 20.8984 29.6875C21.0234 29.3047 21.2109 28.9023 21.4609 28.4805L19 27.25V34.1289C19.2266 34.207 19.4297 34.3164 19.6094 34.457C19.7891 34.5977 19.9492 34.7617 20.0898 34.9492C20.2305 35.1367 20.332 35.3398 20.3945 35.5586C20.457 35.7773 20.4922 36.0078 20.5 36.25V40H16V36.25C16 36.0156 16.0352 35.7891 16.1055 35.5703C16.1758 35.3516 16.2773 35.1445 16.4102 34.9492C16.543 34.7539 16.6992 34.5898 16.8789 34.457C17.0586 34.3242 17.2656 34.2148 17.5 34.1289V26.5L16 25.75L28 19.75L40 25.75L34.5391 28.4805ZM19 36.25C19 36.0469 18.9258 35.8711 18.7773 35.7227C18.6289 35.5742 18.4531 35.5 18.25 35.5C18.0469 35.5 17.8711 35.5742 17.7227 35.7227C17.5742 35.8711 17.5 36.0469 17.5 36.25V38.5H19V36.25ZM19.3516 25.75L28 30.0742L36.6484 25.75L28 21.4258L19.3516 25.75ZM34 32.4062C34 31.8047 33.9414 31.2461 33.8242 30.7305C33.707 30.2148 33.5 29.6875 33.2031 29.1484L28 31.75L22.7969 29.1484C22.5391 29.6016 22.3437 30.0781 22.2109 30.5781C22.0781 31.0781 22.0078 31.5938 22 32.125V32.4062L28 35.4062L34 32.4062Z" fill="#555555"/>
<rect x="1" y="1" width="54" height="54" rx="27" stroke="#555555" stroke-width="2"/>
</svg>
