<svg width="125" height="30" viewBox="0 0 125 30" fill="none" xmlns="http://www.w3.org/2000/svg">
<path d="M1 18.8333L1 1L9.68 1L29 1V6.5M1 18.8333L1 23M1 18.8333L4.65217 15.598M16.5217 23L16.5217 9.66667L22.913 16.5L29 9.66667L29 23V29H22.913L1 29L1 26.2M11.3478 9.66667L4.65217 15.598M4.65217 15.598L11.3478 23" stroke="url(#paint0_linear_407_566)" stroke-linecap="square"/>
<path d="M41.9727 12H41.2402L37.9238 7.48242L36.8105 8.55469V12H36.207V3.43359H36.8105V7.93945C36.9551 7.77539 37.1055 7.61133 37.2617 7.44727C37.4219 7.2793 37.582 7.10938 37.7422 6.9375L41.123 3.43359H41.873L38.3691 7.06055L41.9727 12ZM48.481 12L47.315 8.9707H43.7173L42.5279 12H41.9127L45.2818 3.4043H45.8326L49.1138 12H48.481ZM47.1216 8.42578L45.938 5.21484C45.9068 5.13281 45.8677 5.02734 45.8209 4.89844C45.7779 4.76953 45.731 4.63281 45.6802 4.48828C45.6334 4.34375 45.5865 4.20703 45.5396 4.07812C45.5005 4.21484 45.4576 4.35156 45.4107 4.48828C45.3638 4.625 45.3189 4.75781 45.2759 4.88672C45.233 5.01172 45.192 5.125 45.1529 5.22656L43.9224 8.42578H47.1216ZM53.9757 12L50.8292 4.08984H50.7999C50.8077 4.23438 50.8136 4.38672 50.8175 4.54688C50.8253 4.70312 50.8312 4.86719 50.8351 5.03906C50.839 5.21094 50.8409 5.39062 50.8409 5.57812V12H50.2667V3.43359H51.1808L54.2159 11.0625H54.2511L57.3097 3.43359H58.2003V12H57.6085V5.50781C57.6085 5.35547 57.6105 5.19922 57.6144 5.03906C57.6183 4.87891 57.6222 4.7207 57.6261 4.56445C57.6339 4.4043 57.6417 4.25 57.6495 4.10156H57.6144L54.4562 12H53.9757ZM60.5661 12V3.43359H61.1696V12H60.5661ZM63.5295 12V3.43359H64.133V11.4492H68.2112V12H63.5295ZM74.9832 12L73.8172 8.9707H70.2195L69.0301 12H68.4148L71.784 3.4043H72.3348L75.616 12H74.9832ZM73.6238 8.42578L72.4402 5.21484C72.409 5.13281 72.3699 5.02734 72.323 4.89844C72.2801 4.76953 72.2332 4.63281 72.1824 4.48828C72.1355 4.34375 72.0887 4.20703 72.0418 4.07812C72.0027 4.21484 71.9598 4.35156 71.9129 4.48828C71.866 4.625 71.8211 4.75781 71.7781 4.88672C71.7352 5.01172 71.6941 5.125 71.6551 5.22656L70.4246 8.42578H73.6238ZM39.916 28L36.7695 20.0898H36.7402C36.748 20.2344 36.7539 20.3867 36.7578 20.5469C36.7656 20.7031 36.7715 20.8672 36.7754 21.0391C36.7793 21.2109 36.7812 21.3906 36.7812 21.5781V28H36.207V19.4336H37.1211L40.1562 27.0625H40.1914L43.25 19.4336H44.1406V28H43.5488V21.5078C43.5488 21.3555 43.5508 21.1992 43.5547 21.0391C43.5586 20.8789 43.5625 20.7207 43.5664 20.5645C43.5742 20.4043 43.582 20.25 43.5898 20.1016H43.5547L40.3965 28H39.916ZM51.8677 28L50.7017 24.9707H47.1041L45.9146 28H45.2994L48.6685 19.4043H49.2193L52.5005 28H51.8677ZM50.5084 24.4258L49.3248 21.2148C49.2935 21.1328 49.2545 21.0273 49.2076 20.8984C49.1646 20.7695 49.1177 20.6328 49.067 20.4883C49.0201 20.3438 48.9732 20.207 48.9263 20.0781C48.8873 20.2148 48.8443 20.3516 48.7974 20.4883C48.7505 20.625 48.7056 20.7578 48.6627 20.8867C48.6197 21.0117 48.5787 21.125 48.5396 21.2266L47.3091 24.4258H50.5084ZM55.8917 28H55.2823V19.9785H52.505V19.4336H58.6691V19.9785H55.8917V28ZM61.8493 24.1094L64.3512 19.4336H65.0134L62.1598 24.6895V28H61.5563V24.7363L58.6794 19.4336H59.3473L61.8493 24.1094ZM70.883 25.791C70.883 26.3027 70.7541 26.7324 70.4963 27.0801C70.2385 27.4238 69.8889 27.6836 69.4475 27.8594C69.0061 28.0312 68.5061 28.1172 67.9475 28.1172C67.5998 28.1172 67.2834 28.0996 66.9983 28.0645C66.717 28.0332 66.4612 27.9902 66.2307 27.9355C66.0041 27.8809 65.7971 27.8184 65.6096 27.748V27.1445C65.9143 27.2617 66.2659 27.3652 66.6643 27.4551C67.0666 27.541 67.5041 27.584 67.9768 27.584C68.4221 27.584 68.8166 27.5195 69.1604 27.3906C69.508 27.2617 69.7815 27.0664 69.9807 26.8047C70.1799 26.543 70.2795 26.2129 70.2795 25.8145C70.2795 25.4629 70.1955 25.1758 70.0276 24.9531C69.8635 24.7266 69.6155 24.5332 69.2834 24.373C68.9514 24.209 68.5334 24.043 68.0295 23.875C67.678 23.7539 67.3577 23.627 67.0686 23.4941C66.7834 23.3574 66.5393 23.2012 66.3362 23.0254C66.133 22.8457 65.9768 22.6309 65.8674 22.3809C65.762 22.127 65.7092 21.8281 65.7092 21.4844C65.7092 21.0117 65.8284 20.6152 66.0666 20.2949C66.3088 19.9707 66.635 19.7266 67.0452 19.5625C67.4592 19.3945 67.9241 19.3105 68.4397 19.3105C68.8498 19.3105 69.2385 19.3496 69.6057 19.4277C69.9768 19.502 70.3342 19.6152 70.678 19.7676L70.467 20.2891C70.1233 20.1406 69.7795 20.0312 69.4358 19.9609C69.092 19.8906 68.7522 19.8555 68.4163 19.8555C68.0139 19.8555 67.6545 19.916 67.3381 20.0371C67.0256 20.1543 66.7776 20.332 66.594 20.5703C66.4104 20.8086 66.3186 21.1094 66.3186 21.4727C66.3186 21.8477 66.4026 22.1504 66.5705 22.3809C66.7424 22.6113 66.9846 22.8027 67.2971 22.9551C67.6135 23.1074 67.9866 23.2559 68.4163 23.4004C68.9241 23.5723 69.3616 23.7539 69.7288 23.9453C70.0959 24.1328 70.3791 24.3711 70.5784 24.6602C70.7815 24.9492 70.883 25.3262 70.883 25.791ZM72.657 28V19.4336H73.2605V28H72.657ZM80.9818 28L79.8158 24.9707H76.2181L75.0287 28H74.4134L77.7826 19.4043H78.3334L81.6146 28H80.9818ZM79.6224 24.4258L78.4388 21.2148C78.4076 21.1328 78.3685 21.0273 78.3216 20.8984C78.2787 20.7695 78.2318 20.6328 78.181 20.4883C78.1341 20.3438 78.0873 20.207 78.0404 20.0781C78.0013 20.2148 77.9584 20.3516 77.9115 20.4883C77.8646 20.625 77.8197 20.7578 77.7767 20.8867C77.7337 21.0117 77.6927 21.125 77.6537 21.2266L76.4232 24.4258H79.6224ZM88.5331 28H87.8007L84.4843 23.4824L83.371 24.5547V28H82.7675V19.4336H83.371V23.9395C83.5155 23.7754 83.6659 23.6113 83.8222 23.4473C83.9823 23.2793 84.1425 23.1094 84.3027 22.9375L87.6835 19.4336H88.4335L84.9296 23.0605L88.5331 28Z" fill="#626060"/>
<defs>
<linearGradient id="paint0_linear_407_566" x1="37.4" y1="-5.44" x2="18.0901" y2="35.1784" gradientUnits="userSpaceOnUse">
<stop stop-color="#E73389"/>
<stop offset="0.65" stop-color="#5197D8"/>
<stop offset="1" stop-color="#111F6B"/>
</linearGradient>
</defs>
</svg>
